<svg width="68" height="68" viewBox="0 0 68 68" fill="none" xmlns="http://www.w3.org/2000/svg">
<path d="M34.0357 53.9248C34.0357 53.9248 34.0357 53.9248 34.0281 53.9248C33.9443 53.9248 33.8604 53.902 33.7843 53.8715C33.7005 53.841 33.6243 53.7877 33.5557 53.7267L20.5281 40.8439C20.2615 40.5772 20.2615 40.143 20.5281 39.8763C20.7948 39.6097 21.2366 39.6097 21.5033 39.8763L33.35 51.5936V14.2249C33.35 13.8516 33.6624 13.5469 34.0357 13.5469C34.409 13.5469 34.7213 13.8516 34.7213 14.2249V51.5936L46.5681 39.8763C46.8347 39.6097 47.2766 39.6097 47.5432 39.8763C47.8099 40.143 47.8099 40.5772 47.5432 40.8439L34.5156 53.7191C34.4471 53.7877 34.3709 53.8334 34.2871 53.8639C34.2109 53.8943 34.1271 53.9172 34.0433 53.9172C34.0433 53.9172 34.0433 53.9172 34.0357 53.9172V53.9248Z" fill="white"/>
<circle cx="33.8678" cy="33.8678" r="33.1904" stroke="white" stroke-width="1.35471"/>
</svg>
