<svg width="40" height="31" viewBox="0 0 40 31" fill="none" xmlns="http://www.w3.org/2000/svg">
<path d="M17.0041 2.19925L15.5585 0C5.55659 6.65231 0 14.735 0 21.3873C0 27.8197 4.77956 30.8441 8.83542 30.8441C13.9475 30.8441 17.5588 26.5547 17.5588 22.0471C17.5588 18.2538 15.1139 15.0095 11.8351 13.799C10.8909 13.4682 10.0019 13.1938 10.0019 11.5997C10.0019 9.56588 11.5026 6.54322 17.0041 2.19925ZM39.0633 2.19925L37.6177 0C27.726 6.65231 22.0592 14.735 22.0592 21.3873C22.0592 27.8197 26.949 30.8441 31.0049 30.8441C36.1721 30.8441 39.8403 26.5547 39.8403 22.0471C39.8403 18.2538 37.3403 15.0095 33.9494 13.799C33.0053 13.4682 32.1713 13.1938 32.1713 11.5997C32.1713 9.56588 33.7272 6.54146 39.0615 2.1975L39.0633 2.19925Z" fill="#D4D0B6"/>
</svg>
