<svg width="186" height="48" viewBox="0 0 186 48" fill="none" xmlns="http://www.w3.org/2000/svg">
<path d="M0.0025959 41.0046H5.54941L21.2109 15.2114L18.087 10.0527L0.0025959 41.0046Z" fill="#032DFF"/>
<path d="M21.2089 5.02596L24.1455 10.0519L27.082 5.02596L24.1455 0L21.2089 5.02596Z" fill="#032DFF"/>
<path d="M29.9859 10.0527L24.1463 20.0473H29.7537L32.9561 25.5283H20.4482L19.2523 29.9388H36.219L39.4818 35.5232H14.9504L11.7478 41.0046H48.0703L29.9859 10.0527Z" fill="#221413"/>
<path d="M57.7876 19.3281V5.53571H60.152V19.3281H57.7876ZM65.3604 14.087V19.3281H62.996V14.2446C62.996 11.2694 64.9663 9.27936 68.0597 9.27936C71.035 9.27936 73.025 11.2694 73.025 14.2446V19.3281H70.6409V14.087C70.6409 12.5304 69.5769 11.4862 67.9809 11.4862C66.4244 11.4862 65.3604 12.5501 65.3604 14.087ZM81.5774 19.3281C77.4594 19.3281 75.824 17.3578 75.824 13.2792V7.42724H78.1884V9.59462H81.5774V11.7029H78.1884V13.6338C78.1884 16.0179 79.0159 17.0031 81.5774 17.0031V19.3281ZM94.124 14.7569H86.3214C86.3806 16.2741 87.4642 17.3775 89.1982 17.3775C90.5183 17.3775 91.4049 16.7076 91.7005 15.7224H94.124C93.6905 18.1656 91.8581 19.5252 89.139 19.5252C86.0259 19.5252 83.957 17.476 83.957 14.4023C83.957 11.3285 86.0259 9.27936 89.139 9.27936C92.0157 9.27936 94.124 11.0724 94.124 14.1658V14.7569ZM86.4397 13.1609H91.6414C91.4443 11.9787 90.538 11.2103 89.1587 11.2103C87.7795 11.2103 86.7943 12.0773 86.4397 13.1609ZM96.9582 19.3281V4.55054H99.3226V19.3281H96.9582ZM102.167 19.3281V4.55054H104.531V19.3281H102.167ZM117.542 14.7569H109.739C109.798 16.2741 110.882 17.3775 112.616 17.3775C113.936 17.3775 114.823 16.7076 115.118 15.7224H117.542C117.108 18.1656 115.276 19.5252 112.557 19.5252C109.444 19.5252 107.375 17.476 107.375 14.4023C107.375 11.3285 109.444 9.27936 112.557 9.27936C115.434 9.27936 117.542 11.0724 117.542 14.1658V14.7569ZM109.858 13.1609H115.059C114.862 11.9787 113.956 11.2103 112.577 11.2103C111.197 11.2103 110.212 12.0773 109.858 13.1609ZM122.663 14.4023C122.663 16.1165 123.806 17.2987 125.5 17.2987C126.86 17.2987 127.687 16.5893 128.022 15.486H130.485C130.052 17.9489 128.219 19.5252 125.5 19.5252C122.387 19.5252 120.318 17.476 120.318 14.4023C120.318 11.3285 122.387 9.27936 125.5 9.27936C128.219 9.27936 130.052 10.8556 130.485 13.3186H128.022C127.687 12.2152 126.86 11.5059 125.5 11.5059C123.806 11.5059 122.663 12.6684 122.663 14.4023ZM139.073 19.3281C134.955 19.3281 133.32 17.3578 133.32 13.2792V7.42724H135.684V9.59462H139.073V11.7029H135.684V13.6338C135.684 16.0179 136.512 17.0031 139.073 17.0031V19.3281ZM141.644 12.2743C141.644 10.2251 143.24 9.25966 146.117 9.25966C147.575 9.25966 148.737 9.41729 149.801 9.81136V11.9393C149.092 11.6832 147.634 11.23 145.92 11.23C144.619 11.23 144.009 11.5453 144.009 12.1167C144.009 13.8309 150.215 12.8457 150.215 16.3923C150.215 18.4415 148.619 19.5449 145.742 19.5449C144.284 19.5449 143.122 19.3872 142.038 18.9932V16.8652C142.748 17.1213 144.206 17.5745 145.92 17.5745C147.24 17.5745 147.831 17.1213 147.831 16.5499C147.831 14.8554 141.644 15.8209 141.644 12.2743ZM67.0285 33.3482V35.5156H60.152V39.1607H68.1713V41.3281H59.955C58.6546 41.3281 57.7876 40.4612 57.7876 39.1607V36.422C57.7876 35.2989 58.162 34.5107 59.3048 34.5304H59.423V34.3334H59.3048C58.162 34.3334 57.7876 33.565 57.7876 32.4419V29.7031C57.7876 28.4027 58.6546 27.5357 59.955 27.5357H68.1713V29.7031H60.152V33.3482H67.0285ZM76.2416 37.7618C73.9954 37.7618 73.3649 38.6879 73.3649 39.8307V41.3281H71.0005V39.7913C71.0005 37.151 73.0299 36.5008 74.0151 36.5008V36.3037C73.0299 36.3037 71.0005 35.6535 71.0005 33.0133V31.4764H73.3649V32.9739C73.3649 34.1167 73.9954 35.0427 76.2416 35.0427C78.5075 35.0427 79.138 34.1167 79.138 32.9739V31.4764H81.5024V33.0133C81.5024 35.6535 79.473 36.3037 78.4878 36.3037V36.5008C79.473 36.5008 81.5024 37.151 81.5024 39.7913V41.3281H79.138V39.8307C79.138 38.6879 78.5075 37.7618 76.2416 37.7618ZM94.712 36.5599C94.712 39.5548 92.8599 41.5252 90.1605 41.5252C88.0326 41.5252 86.8898 40.4218 86.8898 39.5154V39.3381L86.7124 39.3184V46.254H84.348V36.4023C84.348 33.3285 86.4169 31.2794 89.53 31.2794C92.6432 31.2794 94.712 33.2497 94.712 36.5599ZM92.3476 36.4023C92.3476 34.6684 91.2048 33.5059 89.53 33.5059C87.7961 33.5059 86.7124 34.629 86.7124 36.4023C86.7124 38.1165 87.5794 39.2987 89.5694 39.2987C91.2836 39.2987 92.3476 38.1756 92.3476 36.4023ZM97.4839 36.4023C97.4839 33.3285 99.5528 31.2794 102.666 31.2794C105.759 31.2794 107.848 33.3285 107.848 36.4023C107.848 39.476 105.759 41.5252 102.666 41.5252C99.5528 41.5252 97.4839 39.476 97.4839 36.4023ZM99.8286 36.4023C99.8286 38.1165 100.971 39.2987 102.666 39.2987C104.341 39.2987 105.484 38.1165 105.484 36.4023C105.484 34.6684 104.341 33.5059 102.666 33.5059C100.971 33.5059 99.8286 34.6684 99.8286 36.4023ZM112.946 36.4417V41.3281H110.581V36.7372C110.581 33.3285 112.63 31.3779 115.842 31.3779V33.6832C114.108 33.7029 112.946 34.7275 112.946 36.4417ZM124.333 41.3281C120.215 41.3281 118.58 39.3578 118.58 35.2792V29.4272H120.944V31.5946H124.333V33.7029H120.944V35.6338C120.944 38.0179 121.772 39.0031 124.333 39.0031V41.3281ZM126.904 34.2743C126.904 32.2251 128.5 31.2597 131.377 31.2597C132.835 31.2597 133.997 31.4173 135.061 31.8114V33.9393C134.352 33.6832 132.894 33.23 131.18 33.23C129.879 33.23 129.269 33.5453 129.269 34.1167C129.269 35.8309 135.475 34.8457 135.475 38.3923C135.475 40.4415 133.879 41.5449 131.003 41.5449C129.545 41.5449 128.382 41.3872 127.298 40.9932V38.8652C128.008 39.1213 129.466 39.5745 131.18 39.5745C132.5 39.5745 133.091 39.1213 133.091 38.5499C133.091 36.8554 126.904 37.8209 126.904 34.2743Z" fill="#221413"/>
<path d="M162.175 11.3482V13.5156H155.298V17.1607H163.317V19.3281H155.101C153.801 19.3281 152.934 18.4612 152.934 17.1607V14.422C152.934 13.2989 153.308 12.5107 154.451 12.5304H154.569V12.3334H154.451C153.308 12.3334 152.934 11.565 152.934 10.4419V7.70309C152.934 6.40266 153.801 5.53571 155.101 5.53571H163.317V7.70309H155.298V11.3482H162.175ZM168.511 14.4417V19.3281H166.147V14.7372C166.147 11.3285 168.196 9.37788 171.407 9.37788V11.6832C169.674 11.7029 168.511 12.7275 168.511 14.4417ZM173.548 14.5599C173.548 11.2497 175.598 9.27936 178.73 9.27936C181.824 9.27936 183.893 11.3285 183.912 14.4023V19.3281H181.528V17.3184L181.351 17.3381V17.5154C181.351 18.4218 180.228 19.5252 178.1 19.5252C175.381 19.5252 173.548 17.5548 173.548 14.5599ZM175.893 14.4023C175.893 16.1756 176.957 17.2987 178.671 17.2987C180.681 17.2987 181.528 16.1165 181.528 14.4023C181.528 12.629 180.445 11.5059 178.73 11.5059C177.036 11.5059 175.893 12.6684 175.893 14.4023Z" fill="#032DFF"/>
</svg>
